<svg xmlns="http://www.w3.org/2000/svg">


	<symbol id="cross">
		<path
		d="M7.79 9.2L0 1.41L1.41 0L9.2 7.79L17 0L18.41 1.41L10.62 9.2L18.41 16.99L17 18.41L9.2 10.62L1.41 18.41L0 16.99L7.79 9.2Z"
		fill-opacity="1.000000" fill-rule="nonzero" />
	</symbol>
	<symbol id="cross-in-circle">
		<path  d="M10 20C4.47715 20 0 15.5228 0 10C0 4.47715 4.47715 0 10 0C15.5228 0 20 4.47715 20 10C20 15.5228 15.5228 20 10 20ZM10 18C14.4183 18 18 14.4183 18 10C18 5.58172 14.4183 2 10 2C5.58172 2 2 5.58172 2 10C2 14.4183 5.58172 18 10 18ZM10 8.5858L12.8284 5.75736L14.2426 7.17157L11.4142 10L14.2426 12.8284L12.8284 14.2426L10 11.4142L7.17157 14.2426L5.75736 12.8284L8.5858 10L5.75736 7.17157L7.17157 5.75736L10 8.5858Z"/>
	</symbol>
	<symbol id="arrow">
		<path d="M10 9L10 6L14 10L10 14L10 11L6 11L6 9L10 9ZM10 0C15.52 0 20 4.48 20 10C20 15.52 15.52 20 10 20C4.47 20 0 15.52 0 10C0 4.48 4.47 0 10 0ZM10 18C14.42 18 18 14.42 18 10C18 5.58 14.42 2 10 2C5.58 2 2 5.58 2 10C2 14.42 5.58 18 10 18Z"  fill-opacity="1.000000" fill-rule="nonzero"/>
	</symbol>

</svg>