<svg width="158.000000" height="55.000000" viewBox="0 0 158 55" fill="none" xmlns="http://www.w3.org/2000/svg" xmlns:xlink="http://www.w3.org/1999/xlink">
	<desc>
			Created with Pixso.
	</desc>
	<defs/>
	<path id="Vector" d="M76.49 42.03C76.04 42.97 75.43 43.7 74.66 44.18C73.88 44.66 73.01 44.91 72.06 44.91C70.96 44.91 69.98 44.6 69.13 43.98C68.29 43.37 67.63 42.52 67.17 41.45C66.71 40.37 66.48 39.11 66.48 37.69C66.48 36.43 66.68 35.34 67.07 34.44C67.47 33.55 68 32.86 68.68 32.4C69.35 31.95 70.11 31.72 70.95 31.72C71.56 31.72 72.09 31.79 72.51 31.94C72.89 32.08 73.22 32.26 73.48 32.46L73.48 36.75L73.56 36.79C73.98 37.06 74.44 37.18 74.92 37.18C75.57 37.18 76.11 36.97 76.5 36.55C76.89 36.13 77.08 35.56 77.08 34.85C77.08 33.96 76.81 33.13 76.28 32.41C75.76 31.69 75.03 31.12 74.12 30.71C73.22 30.3 72.19 30.1 71.05 30.1C69.45 30.1 68.03 30.47 66.8 31.2C65.58 31.94 64.61 33 63.92 34.35C63.23 35.7 62.88 37.27 62.88 39.03C62.88 40.78 63.22 42.18 63.87 43.45C64.53 44.73 65.45 45.74 66.6 46.45C67.76 47.16 69.11 47.53 70.62 47.53C72.27 47.53 73.73 47.11 74.98 46.28C76.22 45.46 77.16 44.24 77.76 42.66L77.81 42.52L76.56 41.88L76.49 42.03L76.49 42.03Z" fill="#212121" fill-opacity="1.000000" fill-rule="nonzero"/>
	<path id="Vector" d="M95 43.66L95 42.5L93.61 42.5L93.61 43.66C93.61 44.25 93.5 44.69 93.29 44.97C93.1 45.24 92.81 45.37 92.42 45.37C92.01 45.37 91.71 45.25 91.53 44.99C91.33 44.72 91.23 44.27 91.23 43.66L91.23 35.06C91.23 33.46 90.71 32.21 89.68 31.35C88.66 30.49 87.18 30.06 85.29 30.06C84.08 30.06 82.99 30.26 82.07 30.64C81.14 31.03 80.4 31.54 79.89 32.15C79.36 32.78 79.09 33.44 79.09 34.12C79.09 34.76 79.28 35.28 79.65 35.67C80.01 36.05 80.5 36.25 81.09 36.25C81.32 36.25 81.59 36.2 81.88 36.09C82.16 35.99 82.41 35.88 82.61 35.76L82.69 35.72L82.69 32.02C82.78 31.99 82.87 31.95 82.96 31.92C83.43 31.76 83.97 31.68 84.56 31.68C85.55 31.68 86.31 31.93 86.82 32.43C87.33 32.94 87.59 33.67 87.59 34.62L87.59 36.67L85.21 37.37C82.88 38.01 81.17 38.79 80.12 39.68C79.05 40.59 78.5 41.82 78.5 43.33C78.5 44.57 78.88 45.56 79.62 46.29C80.35 47.02 81.42 47.39 82.79 47.39C84.16 47.39 85.31 47.04 86.22 46.36C86.77 45.95 87.24 45.47 87.61 44.95L87.67 44.95C87.79 45.58 88.07 46.11 88.5 46.52C89.1 47.1 89.99 47.39 91.17 47.39C92.45 47.39 93.42 47.07 94.05 46.46C94.68 45.84 95 44.9 95 43.65L95 43.66ZM87.6 38.23L87.6 43.19C87.25 43.81 86.8 44.29 86.25 44.61C85.61 44.98 84.93 45.17 84.21 45.17C83.41 45.17 82.81 44.96 82.42 44.54C82.04 44.11 81.84 43.55 81.84 42.86C81.84 41.89 82.17 41.04 82.82 40.36C83.47 39.66 84.47 39.12 85.8 38.75L87.6 38.23L87.6 38.23Z" fill="#212121" fill-opacity="1.000000" fill-rule="nonzero"/>
	<path id="Vector" d="M108.03 31.12C107.04 30.44 105.89 30.1 104.62 30.1C103.64 30.1 102.74 30.26 101.96 30.59C101.18 30.92 100.5 31.39 99.94 31.96C99.68 32.23 99.46 32.52 99.26 32.83L99.22 32.83L99.56 30.57L99.28 30.28L93.62 31.15L93.62 32.58L94.98 32.34C95.28 32.31 95.51 32.36 95.68 32.51C95.84 32.65 95.92 32.88 95.92 33.19L95.92 52.7C95.92 52.99 95.85 53.19 95.73 53.32C95.59 53.44 95.38 53.5 95.09 53.5L93.53 53.5L93.53 55L102.84 55L102.84 53.5L100.35 53.5C100.08 53.5 99.88 53.44 99.73 53.3C99.59 53.16 99.52 52.97 99.52 52.7L99.52 46.64C99.89 46.85 100.29 47.03 100.72 47.18C101.53 47.45 102.46 47.59 103.5 47.59C105.01 47.59 106.36 47.23 107.52 46.53C108.68 45.83 109.59 44.79 110.24 43.44C110.88 42.1 111.21 40.49 111.21 38.65C111.21 36.82 110.92 35.37 110.37 34.09C109.82 32.8 109.03 31.8 108.03 31.12L108.03 31.12ZM107.35 39.36C107.35 41.47 106.91 43.08 106.05 44.14C105.2 45.2 104.05 45.74 102.61 45.74C101.89 45.74 101.21 45.63 100.59 45.43C100.22 45.3 99.86 45.13 99.52 44.91L99.52 34.31C99.84 33.93 100.23 33.6 100.69 33.33C101.34 32.94 102.05 32.75 102.81 32.75C103.73 32.75 104.54 32.99 105.21 33.46C105.88 33.93 106.41 34.66 106.78 35.63C107.16 36.62 107.35 37.88 107.35 39.36Z" fill="#212121" fill-opacity="1.000000" fill-rule="nonzero"/>
	<path id="Vector" d="M116.18 27.31C116.88 27.31 117.45 27.08 117.89 26.63C118.32 26.18 118.54 25.58 118.54 24.85C118.54 24.17 118.32 23.58 117.89 23.12C117.46 22.65 116.88 22.42 116.18 22.42C115.55 22.42 115 22.65 114.53 23.11C114.06 23.57 113.83 24.16 113.83 24.85C113.83 25.58 114.06 26.18 114.52 26.63C114.97 27.08 115.53 27.31 116.18 27.31L116.18 27.31Z" fill="#212121" fill-opacity="1.000000" fill-rule="nonzero"/>
	<path id="Vector" d="M118.19 45.38C118.05 45.25 117.98 45.05 117.98 44.76L117.98 30.53L117.76 30.25L111.66 31.18L111.66 32.64L113.58 32.35C113.9 32.31 114.14 32.35 114.28 32.48C114.42 32.6 114.49 32.83 114.49 33.16L114.49 44.76C114.49 45.05 114.42 45.26 114.3 45.38C114.16 45.51 113.95 45.57 113.66 45.57L111.67 45.57L111.67 47.06L120.81 47.06L120.81 45.57L118.81 45.57C118.55 45.57 118.34 45.51 118.2 45.38L118.19 45.38Z" fill="#212121" fill-opacity="1.000000" fill-rule="nonzero"/>
	<path id="Vector" d="M149.08 42.5L147.68 42.5L147.68 43.66C147.68 44.25 147.58 44.69 147.37 44.97C147.17 45.24 146.89 45.37 146.49 45.37C146.08 45.37 145.79 45.25 145.6 44.99C145.41 44.72 145.31 44.27 145.31 43.66L145.31 35.06C145.31 33.46 144.79 32.21 143.76 31.35C142.74 30.49 141.26 30.06 139.37 30.06C138.16 30.06 137.07 30.26 136.14 30.64C135.22 31.03 134.49 31.54 133.97 32.15C133.44 32.78 133.17 33.44 133.17 34.12C133.17 34.76 133.36 35.28 133.73 35.67C134.09 36.05 134.58 36.25 135.17 36.25C135.4 36.25 135.67 36.2 135.96 36.09C136.24 35.99 136.49 35.88 136.69 35.76L136.77 35.72L136.77 32.02C136.86 31.99 136.95 31.95 137.04 31.92C137.51 31.76 138.06 31.68 138.65 31.68C139.63 31.68 140.39 31.93 140.9 32.43C141.41 32.94 141.67 33.67 141.67 34.62L141.67 36.67L139.3 37.37C136.97 38.01 135.25 38.79 134.2 39.68C133.13 40.59 132.58 41.82 132.58 43.33C132.58 44.57 132.96 45.56 133.7 46.29C134.43 47.02 135.5 47.39 136.88 47.39C138.24 47.39 139.39 47.04 140.3 46.36C140.85 45.95 141.32 45.47 141.69 44.96L141.75 44.96C141.87 45.59 142.15 46.12 142.58 46.53C143.18 47.1 144.07 47.39 145.25 47.39C146.53 47.39 147.5 47.08 148.13 46.46C148.76 45.84 149.08 44.9 149.08 43.66L149.08 42.5L149.08 42.5ZM141.67 38.23L141.67 43.19C141.33 43.81 140.87 44.29 140.33 44.61C139.69 44.98 139 45.17 138.29 45.17C137.48 45.17 136.88 44.96 136.5 44.54C136.11 44.11 135.92 43.55 135.92 42.86C135.92 41.89 136.25 41.04 136.89 40.36C137.55 39.66 138.55 39.12 139.87 38.75L141.67 38.23L141.67 38.23Z" fill="#212121" fill-opacity="1.000000" fill-rule="nonzero"/>
	<path id="Vector" d="M155.97 45.57C155.71 45.57 155.51 45.5 155.39 45.38C155.27 45.26 155.21 45.05 155.21 44.76L155.21 23.04L156.46 22.67L156.46 21.1L149.05 23.19L149.05 24.62L150.73 24.17C151.05 24.08 151.27 24.09 151.4 24.2C151.53 24.32 151.61 24.59 151.61 24.98L151.61 44.76C151.61 45.05 151.55 45.26 151.42 45.38C151.3 45.5 151.1 45.57 150.81 45.57L148.85 45.57L148.85 47.06L158 47.06L158 45.57L155.97 45.57Z" fill="#212121" fill-opacity="1.000000" fill-rule="nonzero"/>
	<path id="Vector" d="M131.05 43.8C130.61 44.38 130.16 44.81 129.72 45.07C129.29 45.33 128.84 45.47 128.39 45.47C127.56 45.47 127 45.22 126.66 44.7C126.32 44.18 126.15 43.4 126.15 42.39L126.15 32.18L130.84 32.18L130.84 30.57L126.15 30.57L126.15 26.53L125.49 26.53L125.44 26.61C125.42 26.64 123.81 29.62 120.27 30.6L120.15 30.64L120.15 32.19L122.52 32.19L122.52 42.83C122.52 44.38 122.94 45.57 123.76 46.35C124.59 47.13 125.74 47.53 127.2 47.53C128.25 47.53 129.2 47.29 130.02 46.81C130.84 46.34 131.56 45.67 132.19 44.83L132.28 44.72L131.16 43.67L131.05 43.8L131.05 43.8Z" fill="#212121" fill-opacity="1.000000" fill-rule="nonzero"/>
	<path id="Vector" d="M0 15.3C0 9.79 4.01 5.52 9.17 5.52C11.44 5.52 13.33 6.35 14.52 7.87L14.52 5.9L19.76 5.9L19.76 24.74L14.52 24.74L14.52 22.78C13.33 24.26 11.44 25.12 9.17 25.12C4.01 25.12 0 20.85 0 15.3ZM14.26 15.3C14.26 12.7 12.4 10.81 9.92 10.81C7.43 10.81 5.53 12.7 5.53 15.3C5.53 17.9 7.35 19.79 9.92 19.79C12.48 19.79 14.26 17.94 14.26 15.3Z" fill="#212121" fill-opacity="1.000000" fill-rule="nonzero"/>
	<path id="Vector" d="M22.02 24.74L22.02 20.59L30.94 10.96L22.21 10.96L22.21 5.9L38.19 5.9L38.19 10.09L29.41 19.68L38.48 19.68L38.48 24.74L22.02 24.74Z" fill="#212121" fill-opacity="1.000000" fill-rule="nonzero"/>
	<path id="Vector" d="M39.43 15.3C39.43 9.79 43.45 5.52 48.61 5.52C50.88 5.52 52.77 6.35 53.96 7.87L53.96 5.9L59.2 5.9L59.2 24.74L53.96 24.74L53.96 22.78C52.77 24.26 50.88 25.12 48.61 25.12C43.45 25.12 39.43 20.86 39.43 15.31L39.43 15.3ZM53.7 15.3C53.7 12.7 51.85 10.81 49.36 10.81C46.87 10.81 44.98 12.7 44.98 15.3C44.98 17.9 46.8 19.79 49.36 19.79C51.92 19.79 53.7 17.94 53.7 15.3Z" fill="#212121" fill-opacity="1.000000" fill-rule="nonzero"/>
	<path id="Vector" d="M32.82 47.99L32.81 47.98L32.81 47.99L32.82 47.99Z" fill="#212121" fill-opacity="1.000000" fill-rule="nonzero"/>
	<path id="Vector" d="M32.98 47.2C32.77 47.35 32.46 47.65 32.39 47.85L32.4 47.87C32.4 47.95 33.13 47.24 32.98 47.2Z" fill="#212121" fill-opacity="1.000000" fill-rule="nonzero"/>
	<path id="Vector" d="M33.61 47.42C33.38 47.63 33.06 47.83 32.85 48.03L32.81 48.08C32.55 48.53 32.79 48.77 33.25 48.52C33.52 48.38 33.72 48.1 33.77 47.78C33.83 47.48 33.78 47.29 33.61 47.41L33.61 47.42Z" fill="#212121" fill-opacity="1.000000" fill-rule="nonzero"/>
	<path id="Vector" d="M52.96 28.56L52.98 28.49C52.98 28.39 52.71 28.57 52.73 28.65C52.73 28.73 52.9 28.67 52.96 28.56L52.96 28.56Z" fill="#212121" fill-opacity="1.000000" fill-rule="nonzero"/>
	<path id="Vector" d="M79.43 20.37C78.74 20.29 78.67 21.21 79.32 21.18L79.38 21.16C79.79 21.03 80.08 20.43 79.43 20.37Z" fill="#212121" fill-opacity="1.000000" fill-rule="nonzero"/>
	<path id="Vector" d="M37.75 43.58L37.75 43.5C37.72 43.27 37.48 43.48 37.5 43.6C37.54 43.8 37.68 43.68 37.75 43.58Z" fill="#212121" fill-opacity="1.000000" fill-rule="nonzero"/>
	<path id="Vector" d="M36.36 45.66C35.85 45.73 35.76 46.55 36.21 46.75L36.27 46.77C36.55 46.79 36.95 46.59 37.18 46.42C37.59 46.16 36.67 45.62 36.36 45.66Z" fill="#212121" fill-opacity="1.000000" fill-rule="nonzero"/>
	<path id="Vector" d="M36.81 43.17C36.81 43.08 36.57 43.16 36.52 43.31L36.53 43.4C36.61 43.46 36.82 43.23 36.81 43.17Z" fill="#212121" fill-opacity="1.000000" fill-rule="nonzero"/>
	<path id="Vector" d="M50.34 30.3L50.32 30.28C50.16 30.18 49.12 30.42 49.36 30.71C49.6 30.91 50.4 30.48 50.34 30.3Z" fill="#212121" fill-opacity="1.000000" fill-rule="nonzero"/>
	<path id="Vector" d="M26.12 51.43L26.05 51.46C25.38 51.84 24.46 51.66 23.94 52.31C23.69 52.62 23.42 53.14 23.58 53.51C23.95 53.78 24.64 52.88 25.22 52.82C25.66 52.69 26.2 53.08 26.57 52.76C26.82 52.53 27.03 51.74 27 51.41C26.89 51.01 26.38 51.33 26.12 51.43L26.12 51.43Z" fill="#212121" fill-opacity="1.000000" fill-rule="nonzero"/>
	<path id="Vector" d="M26.14 49.18L26.12 49.15C25.95 48.97 25.06 49.62 25.22 49.89C25.53 50.04 26.14 49.48 26.14 49.18L26.14 49.18Z" fill="#212121" fill-opacity="1.000000" fill-rule="nonzero"/>
	<path id="Vector" d="M48.66 31.27L48.7 31.22C48.81 31.12 48.81 31.03 48.63 31.06C48.15 31.14 46.26 32.07 46.09 32.48C46 33.17 48.55 31.48 48.66 31.26L48.66 31.27Z" fill="#212121" fill-opacity="1.000000" fill-rule="nonzero"/>
	<path id="Vector" d="M32.33 48.71C32.15 48.71 31.8 49.01 31.86 49.1L31.89 49.13C32.05 49.24 32.68 48.76 32.33 48.71Z" fill="#212121" fill-opacity="1.000000" fill-rule="nonzero"/>
	<path id="Vector" d="M33.02 39.52C33.91 39.33 34.95 38.94 35.71 38.45L35.77 38.41C36.23 38.17 36.8 38.22 37.24 37.93C37.99 37.47 38.73 36.93 39.49 36.47C40.11 36.07 40.77 35.75 41.4 35.37C41.44 35.33 41.56 35.25 41.53 35.19C41.41 35.09 41.14 35.17 40.98 35.22C40.13 35.57 39.31 36.09 38.46 36.51C38.03 36.68 37.89 37.19 37.46 37.27C36.06 37.61 34.8 38.48 33.48 39.07C33.3 39.18 33.02 39.33 32.91 39.49C32.9 39.53 32.94 39.54 33.01 39.52L33.02 39.52Z" fill="#212121" fill-opacity="1.000000" fill-rule="nonzero"/>
	<path id="Vector" d="M30.13 50.03C29.97 49.97 29.41 50.22 29.42 50.4L29.44 50.42C29.51 50.47 30.44 50.1 30.13 50.03Z" fill="#212121" fill-opacity="1.000000" fill-rule="nonzero"/>
	<path id="Vector" d="M42.65 34.37L42.62 34.35C42.59 34.31 41.97 34.58 42.08 34.73C42.15 34.82 42.7 34.53 42.65 34.37Z" fill="#212121" fill-opacity="1.000000" fill-rule="nonzero"/>
	<path id="Vector" d="M45.97 32.67L45.94 32.64C45.79 32.5 44.84 32.89 44.96 33.35C45.19 33.61 45.97 32.91 45.97 32.67Z" fill="#212121" fill-opacity="1.000000" fill-rule="nonzero"/>
	<path id="Vector" d="M81.48 18.85L81.42 18.88C81.12 18.98 80.78 19.27 80.42 19.5C80.34 19.57 80.26 19.66 80.21 19.75C80.07 20.32 82.28 18.7 81.48 18.86L81.48 18.85Z" fill="#212121" fill-opacity="1.000000" fill-rule="nonzero"/>
	<path id="Vector" d="M44.25 34.06L44.33 34.03C44.87 33.85 45.44 33.39 44.39 33.51C43.39 33.6 43.32 34.25 44.25 34.06L44.25 34.06Z" fill="#212121" fill-opacity="1.000000" fill-rule="nonzero"/>
	<path id="Vector" d="M90.74 12.1L90.72 12.17C90.68 12.33 90.93 12.41 90.97 12.25C91.03 12.11 90.82 11.96 90.74 12.1Z" fill="#212121" fill-opacity="1.000000" fill-rule="nonzero"/>
	<path id="Vector" d="M40.92 42.91L40.84 42.91C40.68 42.98 40.64 43.21 40.74 43.21C40.84 43.21 41.03 42.96 40.92 42.91L40.92 42.91Z" fill="#212121" fill-opacity="1.000000" fill-rule="nonzero"/>
	<path id="Vector" d="M39.4 42.57L39.35 42.57C39.25 42.61 39.23 42.75 39.29 42.74C39.34 42.74 39.46 42.6 39.4 42.57Z" fill="#212121" fill-opacity="1.000000" fill-rule="nonzero"/>
	<path id="Vector" d="M39.11 43.86L39.19 43.89C39.37 43.94 39.58 43.6 39.41 43.49C39.26 43.43 38.96 43.72 39.11 43.85L39.11 43.86Z" fill="#212121" fill-opacity="1.000000" fill-rule="nonzero"/>
	<path id="Vector" d="M83.58 17.09C83.23 17.17 82.96 17.44 82.77 17.74L82.73 17.81C82.65 17.93 82.5 18.41 82.71 18.32C83.07 18.05 83.57 17.66 83.99 17.37C84.05 17.32 84.19 17.22 84.21 17.14C84.25 17.03 83.89 17.02 83.59 17.09L83.58 17.09Z" fill="#212121" fill-opacity="1.000000" fill-rule="nonzero"/>
	<path id="Vector" d="M42.49 38.34C42.38 38.12 42.15 38.2 42.22 38.41L42.26 38.49C42.38 38.68 42.6 38.55 42.49 38.34L42.49 38.34Z" fill="#212121" fill-opacity="1.000000" fill-rule="nonzero"/>
	<path id="Vector" d="M102.9 1.16L102.9 1.19C102.97 1.39 104.13 0.72 104.2 0.24C103.9 0.08 102.96 0.9 102.9 1.16Z" fill="#212121" fill-opacity="1.000000" fill-rule="nonzero"/>
	<path id="Vector" d="M38.09 44.3L38.14 44.32C38.27 44.35 38.4 44.13 38.29 44.06C38.19 44.02 38 44.21 38.1 44.3L38.09 44.3Z" fill="#212121" fill-opacity="1.000000" fill-rule="nonzero"/>
	<path id="Vector" d="M101.82 1.77L101.83 1.83C102 2.12 102.7 1.77 102.46 1.47C102.3 1.31 101.8 1.53 101.82 1.77Z" fill="#212121" fill-opacity="1.000000" fill-rule="nonzero"/>
	<path id="Vector" d="M44.55 37.66L44.55 37.63C44.49 37.42 43.18 37.85 43.29 38.11C43.63 38.27 44.41 37.99 44.55 37.66Z" fill="#212121" fill-opacity="1.000000" fill-rule="nonzero"/>
	<path id="Vector" d="M41.21 40.99L41.19 41.01C41.17 41.08 41.26 41.21 41.29 41.18C41.32 41.16 41.27 41 41.21 40.99Z" fill="#212121" fill-opacity="1.000000" fill-rule="nonzero"/>
	<path id="Vector" d="M87.17 14.57C87.16 14.47 86.91 14.38 86.79 14.32L86.75 14.34C86.5 14.71 87.06 14.96 87.17 14.58L87.17 14.57Z" fill="#212121" fill-opacity="1.000000" fill-rule="nonzero"/>
	<path id="Vector" d="M91.65 11.45L91.65 11.48C91.72 11.63 92.36 11.28 92.24 11.11C92.05 11.07 91.72 11.28 91.65 11.45Z" fill="#212121" fill-opacity="1.000000" fill-rule="nonzero"/>
	<path id="Vector" d="M90.23 12.72C89.56 12.92 88.88 13.63 88.32 14.01L88.27 14.06C88.03 14.53 87.5 14.62 87.09 14.92C86.48 15.42 85.52 15.88 85.07 16.47C85.88 16.29 86.53 15.54 87.29 15.22C87.52 15.13 87.73 15 87.91 14.83C88.64 14.16 89.39 13.51 90.17 12.92C90.27 12.83 90.38 12.72 90.23 12.72Z" fill="#212121" fill-opacity="1.000000" fill-rule="nonzero"/>
	<path id="Vector" d="M93.47 9.73L93.41 9.77C93.25 9.87 93.11 10.02 93.01 10.19C92.63 10.88 93.59 10.4 93.72 10.09C93.89 9.84 93.71 9.63 93.47 9.73L93.47 9.73Z" fill="#212121" fill-opacity="1.000000" fill-rule="nonzero"/>
	<path id="Vector" d="M37.97 42.32L37.97 42.38C38.04 42.44 38.35 42.29 38.26 42.27C38.2 42.24 38.01 42.25 37.97 42.32Z" fill="#212121" fill-opacity="1.000000" fill-rule="nonzero"/>
	<path id="Vector" d="M101.06 2.44L101.01 2.44C99.42 3.36 97.87 4.66 96.37 5.7C94.4 7.12 92.21 8.5 90.26 9.86C86.17 12.33 82.04 14.78 77.93 17.24C76.68 17.99 75.36 18.53 74.14 18.8C73.92 18.85 72.95 19.42 72.74 19.45C72.48 19.48 73.8 18.42 73.27 18.5C73.12 18.52 69.25 20.47 68.77 20.62C68.08 20.82 70.59 19.32 70.79 19.2C71.58 18.73 71 18.84 70.84 18.81C69.72 18.57 69.64 17.98 69.64 16.74L69.64 10.95L74.03 10.95L74.03 5.9L69.64 5.9L69.64 0L68.89 0L64.11 3.01L64.11 5.9L61.32 5.9L61.32 10.96L64.11 10.96L64.11 18.09C64.11 19.27 64.25 20.27 64.54 21.11C64.54 21.11 64.53 21.1 64.54 21.11C64.77 22.12 63.98 22.94 63.49 23.23C62.85 23.6 62.46 24.18 61.81 24.54C61.53 24.71 60.85 24.96 60.92 25.15C60.99 25.36 61.14 25.33 61.24 25.27C61.45 25.15 61.63 24.99 61.83 24.85C62.48 24.4 63.14 23.95 63.79 23.49C64.03 23.33 64.23 23.1 64.49 22.98C64.76 22.86 65.3 22.51 65.6 22.87C65.91 23.24 65.78 23.68 65.55 23.84C64.57 24.37 63.6 24.91 62.62 25.48C55.34 29.55 48.32 33.98 41.12 38.19C38.56 39.62 36.07 41.03 33.39 42.19C32.58 42.59 31.8 43.11 30.94 43.49C30.51 43.72 29.88 43.86 29.68 44.34C29.6 44.63 29.78 44.99 29.6 45.24C29.54 45.33 29.46 45.41 29.36 45.49C28.34 46.08 27.48 46.91 26.51 47.54C26.1 47.74 25.45 48.4 26.12 48.69C26.73 48.91 27.45 48.48 27.91 48.01C28.23 47.74 28.57 47.48 28.76 47.09C28.91 46.81 29.03 46.49 29.24 46.25C29.6 45.8 30.21 45.75 30.57 45.42C30.8 45.2 31.03 44.81 31.23 44.73C31.52 44.64 31.35 45.12 31.31 45.33C31.15 45.74 31.16 46.84 31.83 46.52C32.23 46.24 32.86 46.2 33.3 46.46C33.81 46.68 33.97 47.5 34.43 47.62C34.76 47.66 35.05 47.42 35.35 47.29C36.14 46.99 35.67 46.35 35.19 45.91C34.96 45.63 35.19 45.31 35.52 45.06C35.74 44.88 36.16 44.67 36.06 44.34C35.96 44.1 35.84 43.88 35.9 43.6C35.96 43.32 35.88 42.99 35.96 42.71C36.03 42.46 36.61 42.43 36.78 42.26C36.94 42.1 36.78 41.79 36.91 41.71C37.01 41.65 37.19 41.62 37.25 41.6C37.9 41.46 38.12 40.7 38.69 40.38C39.43 40.04 39.64 39.53 40.2 39.07C40.84 38.71 42.01 37.95 42.71 37.96C42.85 37.94 42.85 37.93 42.93 37.89C43.24 37.64 43.58 37.3 44.03 37.1C44.31 36.93 45.11 36.56 45.11 36.93C45.09 37.01 44.98 37.1 44.92 37.16C44.52 37.47 45.64 37.03 45.75 37.1C46.02 37.12 46.21 37.3 46.43 37.47C47.01 37.87 46.52 38.12 46.14 38.43C45.69 38.87 44.94 38.84 44.49 39.23C44.3 39.42 44.14 39.67 43.9 39.8C43.37 40 43.09 39.54 42.9 40.18C42.84 40.32 42.81 40.52 42.63 40.48C42.4 40.44 42.18 40.37 42.02 40.64C41.86 40.91 41.72 41.18 41.46 41.35C41.21 41.48 40.84 41.94 41.25 42.1C41.8 42.23 42.48 41.4 42.93 41.57C43.39 41.77 43.24 42.41 42.89 42.66C41.95 43.42 40.83 44.07 39.76 44.58C39.26 44.78 38.37 44.59 38.06 45.07C37.93 45.29 37.78 45.56 37.6 45.81C37.53 45.91 37.5 46.04 37.65 46.02C38.8 45.65 39.89 44.77 40.97 44.27C43.46 42.78 46.06 41.53 48.47 39.91C49.57 39.27 50.75 38.67 51.82 37.93C52.12 37.75 52.35 37.42 52.44 37.12C52.54 36.87 52.61 36.72 52.84 36.68C53.19 36.64 53.73 36.68 54.19 36.48C54.9 36.1 55.64 35.63 56.29 35.21C58.15 34.16 60.05 33.09 61.78 31.82C62.88 31.16 63.93 30.39 65.04 29.75C68.41 27.92 71.48 25.6 74.83 23.74C76.01 22.92 77.19 22.1 78.42 21.38C78.54 21.3 78.61 21.27 78.68 21.18C78.69 21.16 78.68 21.15 78.66 21.15C78.6 21.13 78.38 21.2 78.14 21.3C77.7 21.54 77.02 21.55 77.57 21.08C78.32 20.59 78.93 19.88 79.69 19.37C80.85 18.62 81.58 17.36 82.66 16.53C83.71 16.14 84.24 15.04 85.1 14.42C85.53 14.12 86.12 14.17 86.51 13.84C87.01 13.36 87.51 12.88 88.02 12.38C88.27 12.12 88.64 12.04 88.96 11.94C89.32 11.84 89.58 11.53 89.83 11.26C90.21 10.85 90.83 10.89 91.26 10.58C91.53 10.38 91.71 10.03 91.91 9.75C92.75 8.59 94.2 7.93 95.4 7.22C95.81 6.97 96.07 6.42 96.47 6.12C96.81 5.84 97.18 5.67 97.55 5.43C98.61 4.71 99.65 3.9 100.69 3.16C100.79 3.08 100.9 2.99 100.99 2.9C101.23 2.65 101.27 2.41 101.06 2.44L101.06 2.44ZM33.33 43.93C33.27 43.93 33.2 43.96 33.17 43.94C33.13 43.91 33.1 43.83 33.11 43.79C33.12 43.75 33.13 43.63 33.26 43.69C33.38 43.74 33.42 43.92 33.33 43.93ZM34.32 45.6C34.33 45.55 34.27 45.6 34.28 45.47C34.3 45.34 34.36 45.33 34.41 45.4C34.46 45.48 34.35 45.45 34.46 45.54C34.56 45.63 34.32 45.66 34.32 45.6ZM52.57 36.09L52.56 36.14C52.55 36.42 52.34 36.61 52.15 36.81C51.67 37.5 51.01 37.95 50.26 38.25C49.91 38.45 49.58 38.81 49.14 38.96C48.84 39.06 48.56 39.18 48.31 39.37C47.62 39.88 46.98 40.52 46.19 40.87C45.92 40.96 45.51 40.93 45.4 40.78C45.3 40.43 45.81 40.16 46.05 39.87C46.3 39.66 46.5 39.43 46.57 39.15C46.67 38.8 46.77 38.29 47.18 38.22C47.57 38.25 47.85 38.19 48.23 37.99C49.63 37.67 50.71 36.68 52.02 36.08C52.26 35.99 52.65 35.61 52.57 36.09L52.57 36.09ZM61.63 28.23C61.66 28.3 61.64 28.31 61.59 28.25L61.63 28.23ZM58.89 29.51L58.96 29.49C59.07 29.48 59.04 29.58 58.93 29.59C58.85 29.6 58.83 29.54 58.89 29.51ZM58.81 29.66L58.82 29.69C58.82 29.74 58.5 29.87 58.42 29.84C58.26 29.83 58.69 29.66 58.81 29.66ZM56.39 33.54L56.44 33.53C56.54 33.56 56.49 33.68 56.44 33.65C56.39 33.63 56.33 33.56 56.39 33.54L56.39 33.54ZM56.45 34.82C56.17 34.93 56.43 34.61 56.37 34.48C56.35 34.44 56.24 34.31 56.42 34.26C56.5 34.24 56.67 34.32 56.73 34.31C57.47 34.21 56.73 34.72 56.44 34.82L56.45 34.82ZM58.74 31.09C58.69 31.22 58.51 31.35 58.36 31.37L58.3 31.35C58.23 31.31 58.18 31.13 58.2 31.04C58.19 30.9 58.86 30.85 58.75 31.09L58.74 31.09ZM59.26 30.71L59.22 30.76C59.04 30.92 58.69 31 58.79 30.6C58.87 30.19 59.42 30.32 59.26 30.71ZM59.55 29.05C59.45 29.07 59.2 28.79 59.26 28.73L59.3 28.7C59.36 28.67 59.7 28.98 59.55 29.05L59.55 29.05ZM60.88 31.29L60.84 31.27C60.77 31.21 60.91 30.95 61 31.06C61.07 31.12 60.95 31.31 60.87 31.29L60.88 31.29ZM61.41 30.8L61.36 30.81C61.24 30.62 61.57 30.49 61.41 30.8ZM62.11 29C62.01 29.1 61.75 29.2 61.59 29.21L61.57 29.18C61.56 29.05 61.76 28.79 61.96 28.85C62.08 28.86 62.15 28.94 62.11 29L62.11 29ZM62.5 29.39L62.44 29.38C62.5 29.29 62.52 29.3 62.5 29.39ZM62.51 27.65L62.48 27.6C62.55 27.56 62.56 27.57 62.51 27.65ZM63.29 27.13C63.32 27.2 63.31 27.21 63.25 27.15L63.29 27.13ZM63.34 28.82C63.28 28.91 63.27 28.92 63.24 28.81L63.34 28.81L63.34 28.82ZM63.1 29.8L63.05 29.83C62.79 29.9 62.74 29.55 62.96 29.42C63.07 29.34 63.31 29.33 63.35 29.41C63.43 29.51 63.18 29.73 63.1 29.8L63.1 29.8ZM63.96 28.59C63.95 28.51 63.97 28.5 64.01 28.58L63.96 28.59ZM64.5 28.73C64.49 28.6 64.5 28.62 64.57 28.72L64.5 28.73ZM64.81 26.17C64.81 26.08 64.83 26.1 64.88 26.16L64.81 26.17ZM65.54 27.94C65.54 27.94 65.32 27.94 65.27 27.94L65.25 27.91C65.28 27.83 65.6 27.88 65.53 27.94L65.54 27.94ZM66.18 27.87L66.14 27.91C65.92 28.04 65.46 27.9 65.55 27.59C65.64 27.12 66.34 27.49 66.18 27.87ZM67.26 24.35C67.25 24.32 67.24 24.28 67.25 24.27C67.26 24.25 67.3 24.25 67.32 24.25C67.33 24.27 67.34 24.31 67.33 24.32C67.32 24.34 67.28 24.34 67.26 24.35L67.26 24.35ZM68.51 26.97L68.45 26.93C68.25 26.77 68.46 26.57 68.65 26.67C68.92 26.81 68.78 27.06 68.51 26.97L68.51 26.97ZM70.46 25.9L70.42 25.88C70.23 25.79 69.83 25.14 70.12 24.96C70.35 24.98 70.7 25.9 70.47 25.9L70.46 25.9ZM71.43 25.19L71.4 25.26C71.26 25.48 70.86 25.28 70.97 25.03C71.07 24.79 71.49 24.93 71.43 25.19ZM72.17 24.26L72.1 24.24C71.96 24.2 71.97 24.04 72.1 23.96C72.38 23.8 72.47 24.21 72.17 24.26ZM73.03 24.6C72.93 24.75 72.68 24.83 72.53 24.75L72.49 24.72C72.35 24.58 73.18 24.26 73.03 24.6ZM72.98 23.93C72.92 23.9 72.86 23.77 72.9 23.73L72.95 23.73C73.05 23.77 73.1 23.99 72.99 23.93L72.98 23.93ZM76.3 22.14L76.28 22.12C76.24 22.08 76.33 21.99 76.38 22.06C76.39 22.11 76.33 22.14 76.3 22.14Z" fill="#212121" fill-opacity="1.000000" fill-rule="nonzero"/>
	<path id="Vector" d="M97.4 6.39L97.35 6.41C96.94 6.62 96.43 7.11 96.12 7.51C96.03 7.64 95.94 7.75 95.98 7.87C96.08 8.21 98.01 6.4 97.4 6.39Z" fill="#212121" fill-opacity="1.000000" fill-rule="nonzero"/>
	<path id="Vector" d="M94.47 9.27C94.42 9.28 94.36 9.37 94.41 9.41L94.47 9.43C94.56 9.41 94.57 9.26 94.47 9.27L94.47 9.27Z" fill="#212121" fill-opacity="1.000000" fill-rule="nonzero"/>
</svg>
